<?xml version="1.0" encoding="UTF-8" standalone="no"?>
<svg
   xmlns:dc="http://purl.org/dc/elements/1.1/"
   xmlns:cc="http://creativecommons.org/ns#"
   xmlns:rdf="http://www.w3.org/1999/02/22-rdf-syntax-ns#"
   xmlns:svg="http://www.w3.org/2000/svg"
   xmlns="http://www.w3.org/2000/svg"
   xmlns:sodipodi="http://sodipodi.sourceforge.net/DTD/sodipodi-0.dtd"
   xmlns:inkscape="http://www.inkscape.org/namespaces/inkscape"
   sodipodi:docname="logo2.svg"
   inkscape:version="1.0 (4035a4fb49, 2020-05-01)"
   id="svg8"
   version="1.1"
   viewBox="0 0 258.63583 258.63583"
   height="258.63583mm"
   width="258.63583mm">
  <defs
     id="defs2" />
  <sodipodi:namedview
     inkscape:window-maximized="1"
     inkscape:window-y="-9"
     inkscape:window-x="-9"
     inkscape:window-height="1001"
     inkscape:window-width="1920"
     fit-margin-bottom="0"
     fit-margin-right="0"
     fit-margin-left="0"
     fit-margin-top="0"
     showgrid="false"
     inkscape:document-rotation="0"
     inkscape:current-layer="text937"
     inkscape:document-units="mm"
     inkscape:cy="503.04634"
     inkscape:cx="323.04635"
     inkscape:zoom="0.7"
     inkscape:pageshadow="2"
     inkscape:pageopacity="0.0"
     borderopacity="1.0"
     bordercolor="#666666"
     pagecolor="#ffffff"
     id="base" />
  <metadata
     id="metadata5">
    <rdf:RDF>
      <cc:Work
         rdf:about="">
        <dc:format>image/svg+xml</dc:format>
        <dc:type
           rdf:resource="http://purl.org/dc/dcmitype/StillImage" />
        <dc:title></dc:title>
      </cc:Work>
    </rdf:RDF>
  </metadata>
  <g
     transform="translate(-20.360653,-15.068989)"
     id="layer1"
     inkscape:groupmode="layer"
     inkscape:label="Layer 1">
    <path
       id="circle945"
       style="fill:#e07a5f;fill-opacity:1;fill-rule:evenodd;stroke:none;stroke-width:0.218998;stroke-opacity:1"
       d="M 278.99649,144.38691 A 129.31792,129.31792 0 0 1 149.67857,273.70482 129.31792,129.31792 0 0 1 20.360653,144.38691 129.31792,129.31792 0 0 1 149.67857,15.068989 129.31792,129.31792 0 0 1 278.99649,144.38691" />
    <path
       id="path933"
       style="fill:#f4f1de;fill-opacity:1;fill-rule:evenodd;stroke:none;stroke-width:0.205567;stroke-opacity:1"
       d="M 271.06574,144.38691 A 121.38717,121.38717 0 0 1 149.67857,265.77407 121.38717,121.38717 0 0 1 28.291401,144.38691 121.38717,121.38717 0 0 1 149.67857,22.999737 121.38717,121.38717 0 0 1 271.06574,144.38691 Z" />
    <path
       style="fill:#e07a5f;fill-opacity:1;stroke:none;stroke-width:1.2;stroke-miterlimit:4;stroke-dasharray:none;stroke-opacity:1"
       d="m 106.81114,221.46713 c -0.78722,1.88306 0.31603,4.5372 2.27835,5.48116 2.0748,0.99807 5.92654,1.22826 8.86724,0.52995 2.09847,-0.49832 2.06254,-1.39664 -0.18187,-4.54704 -2.56123,-3.5951 -4.44913,-5.05224 -6.43856,-4.96948 -1.86708,0.0777 -3.67896,1.48123 -4.52516,3.50541 z"
       id="path903" />
    <path
       style="fill:#e07a5f;fill-opacity:1;stroke:none;stroke-width:1.2;stroke-miterlimit:4;stroke-dasharray:none;stroke-opacity:1"
       d="m 90.921951,221.34708 c -0.121214,0.64306 -0.14907,1.1773 -0.0619,1.18721 0.0872,0.01 0.209623,0.45191 0.272107,0.98221 0.165836,1.40737 2.275165,3.84085 4.544413,5.24278 5.187069,3.20454 5.980509,3.00624 5.582209,-1.3951 -0.62105,-6.86272 -1.870916,-9.4506 -4.817433,-9.97462 -2.411973,-0.42896 -5.048965,1.46181 -5.519398,3.95752 z"
       id="path901" />
    <path
       style="fill:#e07a5f;fill-opacity:1;stroke:none;stroke-width:1.2;stroke-miterlimit:4;stroke-dasharray:none;stroke-opacity:1"
       d="m 100.89632,207.88819 c -0.82081,1.96033 -0.52475,3.99088 0.73903,5.06858 1.44456,1.23187 4.50418,1.10103 7.80157,-0.33362 3.10843,-1.35243 3.77342,-1.82218 3.8908,-2.74842 0.0869,-0.68545 -0.045,-0.89446 -1.16907,-1.85303 -3.23497,-2.75867 -6.09271,-3.72924 -8.29906,-2.81863 -1.22464,0.50545 -2.55559,1.71145 -2.96327,2.68512 z"
       id="path895" />
    <path
       style="fill:#e07a5f;fill-opacity:1;stroke:none;stroke-width:1.2;stroke-miterlimit:4;stroke-dasharray:none;stroke-opacity:1"
       d="m 89.769023,199.41768 c -0.268625,1.47077 0.393927,2.87718 1.754947,3.72525 1.921219,1.19715 5.017046,0.96222 9.0519,-0.68692 4.25757,-1.74016 7.16064,-3.76844 6.67397,-4.66289 -0.59117,-1.08654 -7.735091,-3.08369 -10.669594,-2.9828 -3.572957,0.12285 -6.333164,1.98996 -6.811223,4.60736 z"
       id="path893" />
    <path
       style="fill:#e07a5f;fill-opacity:1;stroke:none;stroke-width:1.2;stroke-miterlimit:4;stroke-dasharray:none;stroke-opacity:1"
       d="m 77.627698,210.45652 c -1.192013,3.2343 0.358937,8.46066 4.002006,13.48592 2.696392,3.71941 3.266343,3.57673 4.349956,-1.08887 1.336235,-5.75329 1.484666,-10.36645 0.412114,-12.80834 -0.681848,-1.55238 -2.204725,-2.81134 -3.591168,-2.96883 -2.176377,-0.2472 -4.362515,1.18128 -5.172908,3.38012 z"
       id="path887" />
    <path
       style="fill:#e07a5f;fill-opacity:1;stroke:none;stroke-width:1.2;stroke-miterlimit:4;stroke-dasharray:none;stroke-opacity:1"
       d="m 79.983136,187.23358 c -0.241628,1.32346 0.306884,2.65256 1.522538,3.68922 2.2227,1.89544 6.724838,1.67889 12.351692,-0.5941 2.764032,-1.11653 4.76647,-2.17987 5.313876,-2.82179 0.814662,-0.95533 0.503402,-1.35023 -1.930057,-2.44874 -7.748572,-3.49785 -13.135734,-3.55063 -16.008023,-0.15682 -0.752279,0.88833 -1.107566,1.55193 -1.250026,2.33223 z"
       id="path885" />
    <path
       style="fill:#e07a5f;fill-opacity:1;stroke:none;stroke-width:1.2;stroke-miterlimit:4;stroke-dasharray:none;stroke-opacity:1"
       d="m 64.538044,197.51228 c -1.827981,3.58825 -0.884072,10.23216 2.37825,16.73993 0.64991,1.29646 0.728367,1.37419 1.483733,1.46991 0.704351,0.0893 0.867851,-0.009 1.399234,-0.83789 1.193211,-1.86208 3.276011,-7.06226 4.069759,-10.16109 0.642452,-2.50813 0.764944,-3.602 0.591446,-5.28165 -0.182518,-1.76708 -0.371564,-2.31521 -1.139977,-3.30528 -0.788543,-1.01601 -1.090962,-1.24492 -2.100517,-1.58992 -1.514962,-0.51771 -3.043321,-0.30669 -4.48718,0.61954 -1.233578,0.79133 -1.604596,1.18799 -2.194748,2.34645 z"
       id="path879" />
    <path
       style="fill:#f2cc8f;fill-opacity:1;stroke:none;stroke-width:1.52256;stroke-miterlimit:4;stroke-dasharray:none;stroke-opacity:1"
       d="m 84.201762,120.96789 c -4.925726,-1.28751 -8.899009,-5.03202 -10.574479,-9.96563 -1.013753,-2.9851 -0.748228,-7.22944 0.650071,-10.39125 2.360633,-5.337793 11.894643,-14.672752 21.674058,-21.221531 10.136618,-6.787962 23.432828,-11.892081 36.927488,-14.175611 11.08613,-1.875964 25.57636,-1.746026 35.58466,0.319105 6.80983,1.405149 8.95471,1.964375 13.76388,3.588558 14.15976,4.782134 26.05842,12.230039 36.0108,22.540784 4.34619,4.502699 6.34835,7.151284 7.27199,9.619925 3.18968,8.5252 -2.06001,18.04276 -10.98777,19.92054 -1.27358,0.26788 -19.72818,0.36869 -64.95879,0.35484 -58.330699,-0.0179 -63.347306,-0.0632 -65.361908,-0.58973 z"
       id="path875" />
    <path
       style="fill:#e07a5f;fill-opacity:1;stroke:none;stroke-width:1.2;stroke-miterlimit:4;stroke-dasharray:none;stroke-opacity:1"
       d="m 70.825083,171.20845 c -0.27071,1.27928 -0.203156,2.07611 0.273552,3.2267 1.213296,2.92846 5.495773,4.13683 11.475226,3.23791 2.765992,-0.41582 6.703936,-1.49163 8.82875,-2.41191 1.288573,-0.55811 1.540827,-0.75926 1.714747,-1.36736 0.252541,-0.88301 -0.07965,-1.18568 -3.591867,-3.27267 -6.315778,-3.75289 -11.031338,-4.76388 -14.826337,-3.17869 -1.837806,0.76767 -3.602631,2.48326 -3.874071,3.76602 z"
       id="path871" />
    <path
       style="fill:#e07a5f;fill-opacity:1;stroke:none;stroke-width:1.2;stroke-miterlimit:4;stroke-dasharray:none;stroke-opacity:1"
       d="m 50.327714,182.9425 c -0.691878,1.8951 -0.926115,3.84567 -0.808312,6.73099 0.16189,3.96533 1.961057,11.11275 3.025899,12.02081 0.733182,0.62523 1.901222,0.40521 2.434162,-0.4585 0.248338,-0.40249 0.858357,-1.32371 1.355597,-2.04717 0.497224,-0.72348 1.634033,-2.62707 2.526213,-4.23023 4.431143,-7.96238 4.986798,-13.18203 1.701516,-15.9836 -3.42079,-2.91712 -8.430554,-0.97505 -10.235075,3.9677 z"
       id="path867" />
    <path
       style="fill:#e07a5f;fill-opacity:1;stroke:none;stroke-width:1.2;stroke-miterlimit:4;stroke-dasharray:none;stroke-opacity:1"
       d="m 59.859644,170.19909 c 10.41036,20.05704 25.21527,37.0013 41.717166,47.74542 3.45893,2.25205 3.49856,2.26743 3.98296,1.54545 0.39004,-0.58129 0.37581,-0.60482 -1.05398,-1.74402 -0.79713,-0.63512 -4.41125,-3.64495 -8.031385,-6.6885 -7.065035,-5.93979 -8.765751,-7.63168 -14.0458,-13.9729 -7.216105,-8.66639 -13.452304,-18.64064 -18.584017,-29.72351 -0.975858,-2.10754 -1.966689,-4.38318 -2.201847,-5.05696 -6.555798,-4.29033 -2.270569,6.95595 -1.783097,7.89502 z"
       id="path847" />
    <path
       id="path907"
       d="m 193.93748,221.46713 c 0.78723,1.88306 -0.31602,4.5372 -2.27836,5.48116 -2.07481,0.99807 -5.92657,1.22826 -8.86729,0.52995 -2.09848,-0.49832 -2.06254,-1.39664 0.18188,-4.54704 2.56124,-3.5951 4.44915,-5.05224 6.43859,-4.96948 1.86709,0.0777 3.67898,1.48123 4.52518,3.50541 z"
       style="fill:#e07a5f;fill-opacity:1;stroke:none;stroke-width:1.2;stroke-miterlimit:4;stroke-dasharray:none;stroke-opacity:1" />
    <path
       id="path909"
       d="m 209.82677,221.34708 c 0.12122,0.64306 0.14907,1.1773 0.0619,1.18721 -0.0872,0.01 -0.20962,0.45191 -0.27211,0.98221 -0.16583,1.40737 -2.27517,3.84085 -4.54444,5.24278 -5.1871,3.20454 -5.98055,3.00624 -5.58224,-1.3951 0.62106,-6.86272 1.87093,-9.4506 4.81746,-9.97462 2.41199,-0.42896 5.049,1.46181 5.51944,3.95752 z"
       style="fill:#e07a5f;fill-opacity:1;stroke:none;stroke-width:1.2;stroke-miterlimit:4;stroke-dasharray:none;stroke-opacity:1" />
    <path
       id="path911"
       d="m 199.85234,207.88819 c 0.82081,1.96033 0.52475,3.99088 -0.73903,5.06858 -1.44457,1.23187 -4.50421,1.10103 -7.80161,-0.33362 -3.10846,-1.35243 -3.77345,-1.82218 -3.89083,-2.74842 -0.0869,-0.68545 0.045,-0.89446 1.16907,-1.85303 3.235,-2.75867 6.09275,-3.72924 8.29912,-2.81863 1.22464,0.50545 2.5556,1.71145 2.96328,2.68512 z"
       style="fill:#e07a5f;fill-opacity:1;stroke:none;stroke-width:1.2;stroke-miterlimit:4;stroke-dasharray:none;stroke-opacity:1" />
    <path
       id="path913"
       d="m 210.97971,199.41768 c 0.26862,1.47077 -0.39393,2.87718 -1.75496,3.72525 -1.92123,1.19715 -5.01708,0.96222 -9.05196,-0.68692 -4.25759,-1.74016 -7.16067,-3.76844 -6.67401,-4.66289 0.59117,-1.08654 7.73514,-3.08369 10.66966,-2.9828 3.57298,0.12285 6.33321,1.98996 6.81127,4.60736 z"
       style="fill:#e07a5f;fill-opacity:1;stroke:none;stroke-width:1.2;stroke-miterlimit:4;stroke-dasharray:none;stroke-opacity:1" />
    <path
       id="path915"
       d="m 223.1211,210.45652 c 1.19202,3.2343 -0.35894,8.46066 -4.00203,13.48592 -2.6964,3.71941 -3.26636,3.57673 -4.34998,-1.08887 -1.33624,-5.75329 -1.48467,-10.36645 -0.41211,-12.80834 0.68185,-1.55238 2.20473,-2.81134 3.59119,-2.96883 2.17638,-0.2472 4.36253,1.18128 5.17293,3.38012 z"
       style="fill:#e07a5f;fill-opacity:1;stroke:none;stroke-width:1.2;stroke-miterlimit:4;stroke-dasharray:none;stroke-opacity:1" />
    <path
       id="path917"
       d="m 220.76565,187.23358 c 0.24163,1.32346 -0.30688,2.65256 -1.52255,3.68922 -2.22271,1.89544 -6.72487,1.67889 -12.35176,-0.5941 -2.76405,-1.11653 -4.7665,-2.17987 -5.31391,-2.82179 -0.81467,-0.95533 -0.50341,-1.35023 1.93007,-2.44874 7.74862,-3.49785 13.13581,-3.55063 16.00812,-0.15682 0.75228,0.88833 1.10757,1.55193 1.25003,2.33223 z"
       style="fill:#e07a5f;fill-opacity:1;stroke:none;stroke-width:1.2;stroke-miterlimit:4;stroke-dasharray:none;stroke-opacity:1" />
    <path
       id="path919"
       d="m 236.21082,197.51228 c 1.82799,3.58825 0.88408,10.23216 -2.37826,16.73993 -0.64991,1.29646 -0.72837,1.37419 -1.48374,1.46991 -0.70436,0.0893 -0.86786,-0.009 -1.39924,-0.83789 -1.19322,-1.86208 -3.27603,-7.06226 -4.06978,-10.16109 -0.64246,-2.50813 -0.76495,-3.602 -0.59145,-5.28165 0.18252,-1.76708 0.37156,-2.31521 1.13998,-3.30528 0.78855,-1.01601 1.09097,-1.24492 2.10053,-1.58992 1.51497,-0.51771 3.04334,-0.30669 4.4872,0.61954 1.23359,0.79133 1.60461,1.18799 2.19476,2.34645 z"
       style="fill:#e07a5f;fill-opacity:1;stroke:none;stroke-width:1.2;stroke-miterlimit:4;stroke-dasharray:none;stroke-opacity:1" />
    <path
       id="path921"
       d="m 229.92375,171.20845 c 0.27071,1.27928 0.20316,2.07611 -0.27355,3.2267 -1.21331,2.92846 -5.4958,4.13683 -11.47529,3.23791 -2.76601,-0.41582 -6.70397,-1.49163 -8.8288,-2.41191 -1.28858,-0.55811 -1.54084,-0.75926 -1.71476,-1.36736 -0.25254,-0.88301 0.0797,-1.18568 3.59189,-3.27267 6.31582,-3.75289 11.0314,-4.76388 14.82642,-3.17869 1.83782,0.76767 3.60265,2.48326 3.87409,3.76602 z"
       style="fill:#e07a5f;fill-opacity:1;stroke:none;stroke-width:1.2;stroke-miterlimit:4;stroke-dasharray:none;stroke-opacity:1" />
    <path
       id="path923"
       d="m 250.42123,182.9425 c 0.69189,1.8951 0.92613,3.84567 0.80832,6.73099 -0.16189,3.96533 -1.96107,11.11275 -3.02592,12.02081 -0.73318,0.62523 -1.90123,0.40521 -2.43417,-0.4585 -0.24834,-0.40249 -0.85836,-1.32371 -1.35561,-2.04717 -0.49722,-0.72348 -1.63404,-2.62707 -2.52623,-4.23023 -4.43116,-7.96238 -4.98682,-13.18203 -1.70152,-15.9836 3.42081,-2.91712 8.4306,-0.97505 10.23513,3.9677 z"
       style="fill:#e07a5f;fill-opacity:1;stroke:none;stroke-width:1.2;stroke-miterlimit:4;stroke-dasharray:none;stroke-opacity:1" />
    <path
       id="path925"
       d="m 240.88925,170.19909 c -10.41042,20.05704 -25.2154,37.0013 -41.71741,47.74542 -3.45894,2.25205 -3.49858,2.26743 -3.98298,1.54545 -0.39004,-0.58129 -0.37581,-0.60482 1.05399,-1.74402 0.79713,-0.63512 4.41128,-3.64495 8.03143,-6.6885 7.06508,-5.93979 8.76581,-7.63168 14.04589,-13.9729 7.21614,-8.66639 13.45237,-18.64064 18.58411,-29.72351 0.97587,-2.10754 1.9667,-4.38318 2.20186,-5.05696 6.55584,-4.29033 2.27058,6.95595 1.78311,7.89502 z"
       style="fill:#e07a5f;fill-opacity:1;stroke:none;stroke-width:1.2;stroke-miterlimit:4;stroke-dasharray:none;stroke-opacity:1" />
    <g
       transform="translate(45.785748,0.84032081)"
       aria-label="lepadarius"
       id="text929"
       style="font-size:22.5778px;line-height:1.25;font-family:'Roboto Slab';-inkscape-font-specification:'Roboto Slab';stroke-width:0.264583">
      <path
         d="m 47.739316,145.29024 v -1.38907 l 1.796964,-0.30868 v -13.79142 l -1.796964,-0.30868 v -1.40009 h 3.968754 v 15.50019 l 1.796964,0.30868 v 1.38907 z"
         style="fill:#e07a5f;fill-opacity:1;stroke-width:0.264583"
         id="path949" />
      <path
         d="m 60.251916,145.52175 q -1.653648,0 -2.877347,-0.74966 -1.223699,-0.76067 -1.896182,-2.10564 -0.661459,-1.34497 -0.661459,-3.10886 v -0.48507 q 0,-1.69774 0.694532,-3.03168 0.705556,-1.34497 1.863109,-2.11667 1.168578,-0.78273 2.546617,-0.78273 1.609551,0 2.689934,0.66146 1.091407,0.66146 1.642623,1.86311 0.551216,1.19063 0.551216,2.8112 v 1.35599 h -7.739071 l -0.03307,0.0551 q 0.02205,1.14653 0.396876,2.0395 0.385851,0.88195 1.102431,1.38906 0.716581,0.50712 1.719794,0.50712 1.102431,0 1.929255,-0.30868 0.837848,-0.3197 1.444186,-0.87092 l 0.848872,1.41111 q -0.63941,0.61737 -1.697745,1.04731 -1.04731,0.41893 -2.524568,0.41893 z m -3.119882,-7.38629 h 5.501134 v -0.28664 q 0,-0.85989 -0.308681,-1.53238 -0.297656,-0.6835 -0.903994,-1.06936 -0.595313,-0.39687 -1.499307,-0.39687 -0.727605,0 -1.322918,0.42995 -0.595313,0.41892 -0.981164,1.14653 -0.385851,0.7276 -0.507118,1.65364 z"
         style="fill:#e07a5f;fill-opacity:1;stroke-width:0.264583"
         id="path951" />
      <path
         d="m 66.304267,149.87635 v -1.94028 l 1.554428,-0.33073 v -11.9724 l -1.719793,-0.33073 v -1.94028 h 4.67431 l 0.154341,1.38906 q 0.529167,-0.7717 1.27882,-1.19063 0.749654,-0.41892 1.78594,-0.41892 1.444185,0 2.469447,0.79375 1.025261,0.78273 1.565453,2.19384 0.551215,1.41111 0.551215,3.29627 v 0.23151 q 0,1.76389 -0.551215,3.08681 -0.540192,1.31189 -1.576478,2.05052 -1.025261,0.72761 -2.480471,0.72761 -0.959115,0 -1.697745,-0.34176 -0.727605,-0.35277 -1.245748,-1.02526 v 3.45061 l 1.554429,0.33073 v 1.94028 z m 6.746882,-6.82405 q 1.234723,0 1.785939,-0.91502 0.56224,-0.91502 0.56224,-2.48047 v -0.23151 q 0,-1.1355 -0.253559,-1.97335 -0.25356,-0.84887 -0.782727,-1.32292 -0.518143,-0.48507 -1.333942,-0.48507 -0.661459,0 -1.168578,0.29766 -0.496094,0.29765 -0.793751,0.84887 v 5.22553 q 0.297657,0.50711 0.793751,0.7717 0.507119,0.26458 1.190627,0.26458 z"
         style="font-style:normal;font-variant:normal;font-weight:bold;font-stretch:normal;font-family:'Roboto Slab';-inkscape-font-specification:'Roboto Slab Bold';fill:#e07a5f;fill-opacity:1"
         id="path953" />
      <path
         d="m 84.04239,145.52175 q -1.774915,0 -2.822225,-0.94809 -1.04731,-0.95912 -1.04731,-2.60174 0,-1.12448 0.606338,-1.97335 0.617361,-0.84888 1.807987,-1.33395 1.201651,-0.48507 2.954517,-0.48507 h 1.576478 v -0.88194 q 0,-0.8599 -0.507119,-1.38907 -0.496094,-0.54019 -1.499307,-0.54019 -0.518143,0 -0.937067,0.13229 -0.4079,0.12127 -0.738629,0.35278 l -0.253559,1.57648 h -2.315107 l -0.0441,-3.09783 q 0.937067,-0.52917 2.028474,-0.8599 1.091407,-0.33073 2.436374,-0.33073 2.337155,0 3.693146,1.09141 1.355991,1.08038 1.355991,3.09783 v 4.91685 q 0,0.24253 0,0.48507 0.01102,0.23151 0.0441,0.45199 l 1.245748,0.17639 v 1.92926 h -3.990802 q -0.121268,-0.30868 -0.242535,-0.66146 -0.121268,-0.35278 -0.176389,-0.70556 -0.573265,0.72761 -1.355991,1.16858 -0.771703,0.42995 -1.819013,0.42995 z m 0.859897,-2.38125 q 0.672483,0 1.278821,-0.29766 0.606337,-0.30868 0.937067,-0.80478 v -1.88515 h -1.587502 q -1.058334,0 -1.60955,0.48507 -0.540192,0.48507 -0.540192,1.16857 0,0.63941 0.396876,0.99219 0.407899,0.34176 1.12448,0.34176 z"
         style="font-style:normal;font-variant:normal;font-weight:bold;font-stretch:normal;font-family:'Roboto Slab';-inkscape-font-specification:'Roboto Slab Bold';fill:#e07a5f;fill-opacity:1"
         id="path955" />
      <path
         d="m 97.381814,145.52175 q -1.422137,0 -2.447399,-0.72761 -1.014237,-0.73863 -1.554428,-2.05052 -0.540192,-1.32292 -0.540192,-3.08681 v -0.23151 q 0,-1.88516 0.540192,-3.29627 0.551215,-1.41111 1.565452,-2.19384 1.014238,-0.79375 2.42535,-0.79375 0.981164,0 1.719794,0.39688 0.738629,0.38585 1.278817,1.10243 v -4.27744 l -1.71979,-0.33073 v -1.94028 h 1.71979 3.2191 v 14.93795 l 1.54341,0.33073 v 1.92926 h -4.33256 l -0.24253,-1.45521 q -0.562243,0.82682 -1.34497,1.25677 -0.771702,0.42995 -1.830036,0.42995 z m 0.959115,-2.50252 q 0.672483,0 1.179602,-0.28663 0.507119,-0.28664 0.848869,-0.82683 v -5.06016 q -0.33073,-0.57326 -0.837845,-0.88194 -0.507118,-0.31971 -1.168577,-0.31971 -0.804775,0 -1.322918,0.48507 -0.507119,0.47405 -0.749654,1.32292 -0.231511,0.84887 -0.231511,1.97335 v 0.23151 q 0,1.56545 0.529168,2.46945 0.529167,0.89297 1.752866,0.89297 z"
         style="font-style:normal;font-variant:normal;font-weight:bold;font-stretch:normal;font-family:'Roboto Slab';-inkscape-font-specification:'Roboto Slab Bold';fill:#e07a5f;fill-opacity:1"
         id="path957" />
      <path
         d="m 110.14797,145.52175 q -1.77491,0 -2.82222,-0.94809 -1.04731,-0.95912 -1.04731,-2.60174 0,-1.12448 0.60634,-1.97335 0.61736,-0.84888 1.80798,-1.33395 1.20165,-0.48507 2.95452,-0.48507 h 1.57648 v -0.88194 q 0,-0.8599 -0.50712,-1.38907 -0.49609,-0.54019 -1.49931,-0.54019 -0.51814,0 -0.93706,0.13229 -0.4079,0.12127 -0.73863,0.35278 l -0.25356,1.57648 h -2.31511 l -0.0441,-3.09783 q 0.93707,-0.52917 2.02848,-0.8599 1.0914,-0.33073 2.43637,-0.33073 2.33716,0 3.69315,1.09141 1.35599,1.08038 1.35599,3.09783 v 4.91685 q 0,0.24253 0,0.48507 0.011,0.23151 0.0441,0.45199 l 1.24574,0.17639 v 1.92926 h -3.9908 q -0.12127,-0.30868 -0.24253,-0.66146 -0.12127,-0.35278 -0.17639,-0.70556 -0.57327,0.72761 -1.35599,1.16858 -0.77171,0.42995 -1.81902,0.42995 z m 0.8599,-2.38125 q 0.67248,0 1.27882,-0.29766 0.60634,-0.30868 0.93707,-0.80478 v -1.88515 h -1.5875 q -1.05834,0 -1.60955,0.48507 -0.5402,0.48507 -0.5402,1.16857 0,0.63941 0.39688,0.99219 0.4079,0.34176 1.12448,0.34176 z"
         style="font-style:normal;font-variant:normal;font-weight:bold;font-stretch:normal;font-family:'Roboto Slab';-inkscape-font-specification:'Roboto Slab Bold';fill:#e07a5f;fill-opacity:1"
         id="path959" />
      <path
         d="m 119.14382,145.29024 v -1.92926 l 1.5434,-0.33073 v -7.39731 l -1.70877,-0.33073 v -1.94028 h 4.70738 l 0.12127,1.47726 0.022,0.26458 q 0.44097,-0.97014 1.09141,-1.46624 0.65043,-0.49609 1.55443,-0.49609 0.28663,0 0.62838,0.0551 0.34176,0.0441 0.60634,0.12127 l -0.34175,2.96554 -1.59853,-0.0882 q -0.68351,-0.0331 -1.11346,0.23151 -0.41892,0.26458 -0.74965,0.76067 v 5.84289 l 1.54341,0.33073 v 1.92926 z"
         style="font-style:normal;font-variant:normal;font-weight:bold;font-stretch:normal;font-family:'Roboto Slab';-inkscape-font-specification:'Roboto Slab Bold';fill:#e07a5f;fill-opacity:1"
         id="path961" />
      <path
         d="m 128.76804,145.29024 v -1.92926 l 1.55443,-0.33073 v -7.39731 l -1.71979,-0.33073 v -1.94028 h 4.93889 v 9.66832 l 1.54341,0.33073 v 1.92926 z m 1.44419,-14.45288 v -2.74506 h 3.32934 v 2.74506 z"
         style="font-style:normal;font-variant:normal;font-weight:bold;font-stretch:normal;font-family:'Roboto Slab';-inkscape-font-specification:'Roboto Slab Bold';fill:#e07a5f;fill-opacity:1"
         id="path963" />
      <path
         d="m 141.20348,145.52175 q -1.88516,0 -2.96554,-1.19063 -1.06936,-1.20165 -1.06936,-3.72622 v -4.97196 l -1.3119,-0.33073 v -1.94028 h 1.3119 3.2191 v 7.26502 q 0,1.27882 0.44097,1.84106 0.452,0.55122 1.35599,0.55122 0.71658,0 1.2678,-0.27561 0.55121,-0.28663 0.90399,-0.80477 v -6.30591 l -1.42214,-0.33073 v -1.94028 h 1.42214 3.2191 v 9.66832 l 1.43316,0.33073 v 1.92926 h -4.25538 l -0.22049,-1.51033 q -0.56224,0.83784 -1.41111,1.28984 -0.84887,0.452 -1.91823,0.452 z"
         style="font-style:normal;font-variant:normal;font-weight:bold;font-stretch:normal;font-family:'Roboto Slab';-inkscape-font-specification:'Roboto Slab Bold';fill:#e07a5f;fill-opacity:1"
         id="path965" />
      <path
         d="m 155.32562,145.52175 q -1.33394,0 -2.49149,-0.25356 -1.14653,-0.25356 -2.20487,-0.72761 l -0.0331,-3.37344 h 2.23794 l 0.42995,1.7198 q 0.37482,0.18741 0.8158,0.29765 0.45199,0.11025 1.02526,0.11025 1.08038,0 1.52135,-0.35278 0.44098,-0.35278 0.44098,-0.88195 0,-0.49609 -0.47405,-0.87092 -0.46302,-0.38585 -1.86311,-0.67248 -2.11667,-0.44097 -3.11988,-1.36702 -1.00321,-0.92604 -1.00321,-2.37023 0,-0.99218 0.49609,-1.80798 0.50712,-0.8158 1.53238,-1.3119 1.03629,-0.49609 2.64584,-0.49609 1.34496,0 2.45842,0.26458 1.12448,0.25356 1.88516,0.67249 l 0.0331,3.26319 h -2.22691 l -0.34176,-1.56545 q -0.29765,-0.22049 -0.70555,-0.33073 -0.39688,-0.11024 -0.904,-0.11024 -0.84887,0 -1.30087,0.34175 -0.45199,0.34176 -0.45199,0.88195 0,0.30868 0.15434,0.57326 0.16536,0.26459 0.63941,0.4961 0.47404,0.23151 1.37804,0.44097 2.21589,0.50712 3.23012,1.35599 1.01424,0.83785 1.01424,2.3592 0,1.66468 -1.21268,2.68994 -1.20165,1.02526 -3.60495,1.02526 z"
         style="font-style:normal;font-variant:normal;font-weight:bold;font-stretch:normal;font-family:'Roboto Slab';-inkscape-font-specification:'Roboto Slab Bold';fill:#e07a5f;fill-opacity:1"
         id="path967" />
    </g>
    <path
       style="fill:#e07a5f;fill-opacity:1;stroke:none;stroke-width:1.52256;stroke-miterlimit:4;stroke-dasharray:none;stroke-opacity:1"
       d="m 213.54789,111.72367 c 1.64989,-0.68936 3.17424,-2.62534 3.43469,-4.36216 0.37958,-2.53116 -0.89699,-4.54641 -6.5512,-10.342042 -4.96851,-5.092785 -12.46282,-10.467011 -19.79603,-14.195895 l -4.27507,-2.173842 -2.37107,1.475568 c -3.23942,2.015969 -5.8005,4.018861 -8.97941,7.022437 -2.78022,2.626868 -3.88197,3.094777 -4.51257,1.91649 -0.25228,-0.471411 -0.13752,-1.230017 0.44539,-2.943854 1.19684,-3.518837 2.65264,-6.104853 5.57702,-9.906808 l 0.68981,-0.896816 -1.93909,-0.565493 c -5.36035,-1.563234 -14.47576,-3.180003 -17.92911,-3.180003 -1.47574,0 -1.87181,0.200826 -4.8932,2.480993 -4.09146,3.087724 -8.89224,7.857817 -11.7571,11.681967 -2.26711,3.026262 -2.78132,3.443927 -3.83011,3.111057 -0.93395,-0.296418 -1.05438,-1.405924 -0.46328,-4.267635 0.83722,-4.053207 2.63609,-8.44422 4.69122,-11.451133 0.48802,-0.714045 0.80517,-1.380396 0.70477,-1.480796 -0.28505,-0.28505 -6.29952,0.528812 -10.92888,1.478867 -4.83625,0.992509 -10.56425,2.671835 -14.51466,4.255353 -2.74621,1.100814 -2.74621,1.100814 -4.0205,3.601487 -1.49208,2.92807 -2.62225,5.844631 -3.68196,9.50192 -0.81107,2.799195 -1.46279,3.530692 -2.60227,2.920875 -0.35677,-0.190941 -0.72667,-0.611689 -0.82199,-0.934993 -0.32378,-1.098099 -0.87926,-5.832654 -0.87926,-7.494077 0,-0.909821 -0.0901,-1.654228 -0.20031,-1.654228 -0.32992,0 -5.895278,3.69449 -7.520895,4.992655 -4.987389,3.982762 -8.098484,6.946674 -11.640595,11.089886 -2.459355,2.87674 -3.011875,4.346 -2.441913,6.49355 0.463631,1.74689 1.406954,2.83106 3.172114,3.64573 1.290145,0.59544 3.802339,0.62004 64.046389,0.62713 51.91709,0.006 62.8903,-0.0707 63.78907,-0.44619 z"
       id="path877" />
    <g
       transform="translate(45.785748,0.84032081)"
       aria-label="since 1990"
       id="text937"
       style="font-size:16.9333px;line-height:1.25;font-family:'Roboto Slab';-inkscape-font-specification:'Roboto Slab';fill:#f2cc8f;fill-opacity:1;stroke-width:0.264583">
      <path
         d="m 66.916224,167.65079 q -0.901235,0 -1.686715,-0.1819 -0.78548,-0.1819 -1.670179,-0.56224 l -0.01654,-2.12493 h 1.231963 l 0.305924,1.28157 q 0.46302,0.19017 0.892967,0.28112 0.438215,0.0827 0.942576,0.0827 0.992186,0 1.422133,-0.38033 0.429947,-0.38034 0.429947,-0.94258 0,-0.52917 -0.438215,-0.89297 -0.429947,-0.37207 -1.570961,-0.62838 -1.620569,-0.37207 -2.389513,-0.99219 -0.760676,-0.62838 -0.760676,-1.67018 0,-0.7276 0.421679,-1.2981 0.421679,-0.57878 1.174086,-0.91778 0.752408,-0.33899 1.752862,-0.33899 1.01699,0 1.736324,0.23151 0.727603,0.23151 1.265037,0.62011 l 0.08268,2.04225 h -1.223696 l -0.264582,-1.19062 q -0.289388,-0.21497 -0.686262,-0.33073 -0.396874,-0.11575 -0.909503,-0.11575 -0.760676,0 -1.240232,0.35553 -0.471289,0.35553 -0.471289,0.89297 0,0.31419 0.132292,0.5457 0.140559,0.23151 0.529166,0.42168 0.388606,0.1819 1.141013,0.3638 1.868616,0.43821 2.604487,1.11621 0.744139,0.67799 0.744139,1.67018 0,1.13274 -0.843358,1.90168 -0.835089,0.76068 -2.63756,0.76068 z"
         style="font-size:16.9333px;fill:#f2cc8f;fill-opacity:1;stroke-width:0.264583"
         id="path970" />
      <path
         d="m 71.70352,167.47716 v -1.0418 l 1.347718,-0.23151 v -6.39133 l -1.347718,-0.23151 v -1.05006 h 2.976556 v 7.6729 l 1.347719,0.23151 v 1.0418 z m 1.265036,-11.15382 v -1.74459 h 1.71152 v 1.74459 z"
         style="font-size:16.9333px;fill:#f2cc8f;fill-opacity:1;stroke-width:0.264583"
         id="path972" />
      <path
         d="m 77.152272,167.47716 v -1.0418 l 1.347719,-0.23151 v -6.39133 l -1.347719,-0.23151 v -1.05006 h 2.802924 l 0.115755,1.33118 q 0.446484,-0.71106 1.116209,-1.09967 0.677993,-0.39687 1.537888,-0.39687 1.446937,0 2.240685,0.85162 0.793749,0.84336 0.793749,2.61276 v 4.37388 l 1.347718,0.23151 v 1.0418 h -4.324275 v -1.0418 l 1.347719,-0.23151 v -4.34081 q 0,-1.18235 -0.471288,-1.67845 -0.46302,-0.49609 -1.422133,-0.49609 -0.702798,0 -1.2485,0.339 -0.537434,0.33899 -0.859894,0.92604 v 5.25031 l 1.347718,0.23151 v 1.0418 z"
         style="font-size:16.9333px;fill:#f2cc8f;fill-opacity:1;stroke-width:0.264583"
         id="path974" />
      <path
         d="m 92.241762,167.65079 q -1.215428,0 -2.116663,-0.56224 -0.901235,-0.57051 -1.397328,-1.57923 -0.496093,-1.00872 -0.496093,-2.33163 v -0.34727 q 0,-1.2733 0.479557,-2.28202 0.479556,-1.00873 1.380791,-1.59577 0.901235,-0.58704 2.149736,-0.58704 1.083135,0 1.89342,0.35553 0.818553,0.35553 1.372524,0.97565 l 0.04134,2.14973 h -1.273305 l -0.281119,-1.56269 q -0.28112,-0.28939 -0.702798,-0.46302 -0.421679,-0.17363 -0.992186,-0.17363 -0.727603,0 -1.281573,0.42995 -0.545702,0.42994 -0.851626,1.14928 -0.305924,0.71933 -0.305924,1.60403 v 0.34727 q 0,0.97565 0.281119,1.69498 0.289388,0.71934 0.818554,1.11621 0.537433,0.38861 1.273304,0.38861 0.826822,0 1.372524,-0.45476 0.545702,-0.45475 0.669725,-1.2485 h 1.463474 l 0.01654,0.0496 q -0.04134,0.76895 -0.454752,1.43867 -0.41341,0.66973 -1.182354,1.08314 -0.760676,0.40514 -1.876884,0.40514 z"
         style="font-size:16.9333px;fill:#f2cc8f;fill-opacity:1;stroke-width:0.264583"
         id="path976" />
      <path
         d="m 101.30372,167.65079 q -1.24023,0 -2.158,-0.56224 -0.917772,-0.57051 -1.422133,-1.57923 -0.496093,-1.00872 -0.496093,-2.33163 v -0.3638 q 0,-1.27331 0.520898,-2.27376 0.529165,-1.00873 1.397328,-1.5875 0.87643,-0.58704 1.90996,-0.58704 1.20716,0 2.01744,0.49609 0.81855,0.49609 1.23196,1.39733 0.41342,0.89296 0.41342,2.10839 v 1.01699 h -5.80429 l -0.02481,0.0413 q 0.01654,0.8599 0.297656,1.52962 0.289387,0.66146 0.826824,1.0418 0.53744,0.38034 1.28983,0.38034 0.82682,0 1.44694,-0.23151 0.62839,-0.23978 1.08314,-0.65319 l 0.63665,1.05833 q -0.47956,0.46302 -1.2733,0.78548 -0.78549,0.31419 -1.89343,0.31419 z m -2.339901,-5.5397 h 4.125841 v -0.21498 q 0,-0.64492 -0.23151,-1.14928 -0.22324,-0.51263 -0.678,-0.80201 -0.44648,-0.29766 -1.12447,-0.29766 -0.54571,0 -0.99219,0.32246 -0.446482,0.31419 -0.73587,0.85989 -0.289387,0.54571 -0.380338,1.24024 z"
         style="font-size:16.9333px;fill:#f2cc8f;fill-opacity:1;stroke-width:0.264583"
         id="path978" />
      <path
         d="m 110.58066,167.47716 v -1.0418 l 1.86035,-0.23151 v -9.02062 l -1.89343,0.0331 v -1.01699 l 3.52226,-0.76068 v 10.76521 l 1.85208,0.23151 v 1.0418 z"
         style="font-size:16.9333px;fill:#f2cc8f;fill-opacity:1;stroke-width:0.264583"
         id="path980" />
      <path
         d="m 120.78363,167.65079 q -0.62838,0 -1.28984,-0.12402 -0.65319,-0.11576 -1.17409,-0.3638 l 0.24805,-1.23197 q 0.50436,0.23978 1.02526,0.34727 0.52916,0.0992 1.19062,0.0992 1.17409,0 1.85208,-0.89297 0.68626,-0.90124 0.71107,-2.89388 l -0.0331,-0.0413 q -0.33072,0.55397 -0.92604,0.85163 -0.59531,0.29765 -1.33945,0.29765 -1.17408,0 -2.02571,-0.48782 -0.85162,-0.48782 -1.31464,-1.41386 -0.45476,-0.92604 -0.45476,-2.24069 0,-1.25677 0.4961,-2.22415 0.50436,-0.96738 1.34772,-1.51308 0.85162,-0.55397 1.88515,-0.55397 1.25677,0 2.16627,0.52916 0.9095,0.5209 1.39733,1.5627 0.49609,1.03352 0.49609,2.57141 v 2.17454 q 0,1.87688 -0.52916,3.10885 -0.52917,1.23196 -1.48828,1.83554 -0.95085,0.60358 -2.24069,0.60358 z m 0.26458,-5.23378 q 0.90124,0 1.49655,-0.3886 0.60358,-0.38861 0.86816,-0.99219 v -1.27331 q 0,-1.59576 -0.61184,-2.40604 -0.60358,-0.81029 -1.7694,-0.81029 -0.60358,0 -1.09141,0.38861 -0.48782,0.38033 -0.77721,1.05833 -0.28112,0.67799 -0.28112,1.56269 0,0.86816 0.25632,1.51308 0.26458,0.63665 0.7524,0.99219 0.48783,0.35553 1.15755,0.35553 z"
         style="font-size:16.9333px;fill:#f2cc8f;fill-opacity:1;stroke-width:0.264583"
         id="path982" />
      <path
         d="m 130.34169,167.65079 q -0.62839,0 -1.28984,-0.12402 -0.65319,-0.11576 -1.17409,-0.3638 l 0.24805,-1.23197 q 0.50436,0.23978 1.02525,0.34727 0.52917,0.0992 1.19063,0.0992 1.17408,0 1.85208,-0.89297 0.68626,-0.90124 0.71106,-2.89388 l -0.0331,-0.0413 q -0.33073,0.55397 -0.92604,0.85163 -0.59531,0.29765 -1.33945,0.29765 -1.17409,0 -2.02571,-0.48782 -0.85163,-0.48782 -1.31465,-1.41386 -0.45475,-0.92604 -0.45475,-2.24069 0,-1.25677 0.49609,-2.22415 0.50436,-0.96738 1.34772,-1.51308 0.85163,-0.55397 1.88515,-0.55397 1.25677,0 2.16628,0.52916 0.9095,0.5209 1.39732,1.5627 0.4961,1.03352 0.4961,2.57141 v 2.17454 q 0,1.87688 -0.52917,3.10885 -0.52916,1.23196 -1.48828,1.83554 -0.95084,0.60358 -2.24068,0.60358 z m 0.26458,-5.23378 q 0.90124,0 1.49655,-0.3886 0.60358,-0.38861 0.86816,-0.99219 v -1.27331 q 0,-1.59576 -0.61185,-2.40604 -0.60358,-0.81029 -1.7694,-0.81029 -0.60358,0 -1.0914,0.38861 -0.48782,0.38033 -0.77721,1.05833 -0.28112,0.67799 -0.28112,1.56269 0,0.86816 0.25631,1.51308 0.26459,0.63665 0.75241,0.99219 0.48782,0.35553 1.15755,0.35553 z"
         style="font-size:16.9333px;fill:#f2cc8f;fill-opacity:1;stroke-width:0.264583"
         id="path984" />
      <path
         d="m 140.51159,167.65079 q -1.7694,0 -2.80293,-1.23196 -1.03352,-1.23197 -1.03352,-3.53053 v -2.85253 q 0,-2.29857 1.02525,-3.53053 1.02526,-1.24023 2.79466,-1.24023 1.77767,0 2.81119,1.24023 1.03353,1.23196 1.03353,3.53053 v 2.85253 q 0,2.30683 -1.02526,3.53879 -1.02526,1.2237 -2.80292,1.2237 z m 0,-1.2733 q 1.08313,0 1.6371,-0.79375 0.56224,-0.79375 0.56224,-2.36471 v -3.53053 q 0,-1.56269 -0.5705,-2.34817 -0.56224,-0.79375 -1.64538,-0.79375 -1.0666,0 -1.62884,0.79375 -0.56224,0.78548 -0.56224,2.34817 v 3.53053 q 0,1.56269 0.57051,2.36471 0.57051,0.79375 1.63711,0.79375 z"
         style="font-size:16.9333px;fill:#f2cc8f;fill-opacity:1;stroke-width:0.264583"
         id="path986" />
    </g>
  </g>
</svg>
